<svg xmlns="http://www.w3.org/2000/svg" width="24" height="24" fill="none"><rect width="2" height="2" x="6" y="15" fill="#919CB5" rx="1"/><path fill="#919CB5" fill-rule="evenodd" d="M8 16c0-3.77 0-5.66 1.17-6.83.63-.63 1.47-.92 2.7-1.06A5.02 5.02 0 007 2a5 5 0 00-3.14 8.89c.32.26.6.67.85 1.15a.7.7 0 00-.42.21c-.23.26-.18.65-.08 1.44l.13 1c.07.62.11.93.33 1.12.2.19.52.19 1.15.19H8z" clip-rule="evenodd"/><path fill="#919CB5" fill-rule="evenodd" d="M10 14c0-1.89 0-2.83.59-3.41C11.17 10 12.1 10 14 10h4c1.89 0 2.83 0 3.41.59.59.58.59 1.52.59 3.41v4c0 1.89 0 2.83-.59 3.41-.58.59-1.52.59-3.41.59h-4c-1.89 0-2.83 0-3.41-.59C10 20.83 10 19.9 10 18v-4zm3 2a1 1 0 112 0 1 1 0 01-2 0zm5-1a1 1 0 100 2 1 1 0 000-2z" clip-rule="evenodd"/></svg>